<svg width="536" height="576" viewBox="0 0 536 576" fill="none" xmlns="http://www.w3.org/2000/svg">
<mask id="path-1-inside-1_1_25" fill="white">
<path d="M535.52 81.2578H366.827L535.5 278.588H431.742L308.008 133.617V576H227V134.193L103.758 278.588H0L168.673 81.2578H0V0H535.52V81.2578Z"/>
</mask>
<path d="M535.52 81.2578V90.2578H544.52V81.2578H535.52ZM366.827 81.2578V72.2578H347.294L359.986 87.1056L366.827 81.2578ZM535.5 278.588V287.588H555.033L542.341 272.74L535.5 278.588ZM431.742 278.588L424.897 284.431L427.591 287.588H431.742V278.588ZM308.008 133.617L314.853 127.774L299.008 109.209V133.617H308.008ZM308.008 576V585H317.008V576H308.008ZM227 576H218V585H227V576ZM227 134.193H236V109.785L220.154 128.351L227 134.193ZM103.758 278.588V287.588H107.909L110.603 284.431L103.758 278.588ZM0 278.588L-6.84131 272.74L-19.5328 287.588H0V278.588ZM168.673 81.2578L175.514 87.1056L188.206 72.2578H168.673V81.2578ZM0 81.2578H-9V90.2578H0V81.2578ZM0 0V-9H-9V0H0ZM535.52 0H544.52V-9H535.52V0ZM535.52 81.2578V72.2578H366.827V81.2578V90.2578H535.52V81.2578ZM366.827 81.2578L359.986 87.1056L528.659 284.436L535.5 278.588L542.341 272.74L373.668 75.41L366.827 81.2578ZM535.5 278.588V269.588H431.742V278.588V287.588H535.5V278.588ZM431.742 278.588L438.588 272.745L314.853 127.774L308.008 133.617L301.162 139.46L424.897 284.431L431.742 278.588ZM308.008 133.617H299.008V576H308.008H317.008V133.617H308.008ZM308.008 576V567H227V576V585H308.008V576ZM227 576H236V134.193H227H218V576H227ZM227 134.193L220.154 128.351L96.9122 272.745L103.758 278.588L110.603 284.431L233.846 140.036L227 134.193ZM103.758 278.588V269.588H0V278.588V287.588H103.758V278.588ZM0 278.588L6.84131 284.436L175.514 87.1056L168.673 81.2578L161.832 75.41L-6.84131 272.74L0 278.588ZM168.673 81.2578V72.2578H0V81.2578V90.2578H168.673V81.2578ZM0 81.2578H9V0H0H-9V81.2578H0ZM0 0V9H535.52V0V-9H0V0ZM535.52 0H526.52V81.2578H535.52H544.52V0H535.52Z" fill="white" mask="url(#path-1-inside-1_1_25)"/>
</svg>
